<svg xmlns="http://www.w3.org/2000/svg" viewBox="0 0 64 64" role="img" aria-label="Ilustrasi uang">
  <rect x="5" y="14" width="54" height="36" rx="7" fill="#f5dce0" transform="rotate(-7 32 32)"/>
  <rect x="8" y="18" width="48" height="29" rx="5" fill="#d79887" stroke="#fff1ed" stroke-width="2" transform="rotate(5 32 32)"/>
  <rect x="13" y="22" width="38" height="21" rx="3" fill="none" stroke="#fff1ed" stroke-width="1.5" transform="rotate(5 32 32)"/>
  <circle cx="32" cy="32" r="8" fill="#fff1ed" transform="rotate(5 32 32)"/>
  <path d="M32 26v12m3-9.5c-.7-1.2-1.7-1.7-3-1.7-1.6 0-2.7.8-2.7 2s1 1.7 2.7 2.2 2.7 1.1 2.7 2.4-1.1 2.2-2.8 2.2c-1.3 0-2.5-.6-3.2-1.8" fill="none" stroke="#79534f" stroke-linecap="round" stroke-width="1.4"/>
  <path d="M13 8h13M19.5 4v8m24 39h13m-6.5-4v8" fill="none" stroke="#f1bac3" stroke-linecap="round" stroke-width="2"/>
</svg>